<svg width="15" height="17" viewBox="0 0 15 17" fill="none" xmlns="http://www.w3.org/2000/svg">
<mask id="path-1-outside-1" maskUnits="userSpaceOnUse" x="0" y="0" width="15" height="17" fill="black">
<rect fill="white" width="15" height="17"/>
<path d="M2 5C2 4.44772 2.44772 4 3 4H10C10.5523 4 11 4.44772 11 5V14C11 14.5523 10.5523 15 10 15H3C2.44772 15 2 14.5523 2 14V5Z"/>
</mask>
<path d="M4 0.25C3.58579 0.25 3.25 0.585786 3.25 1C3.25 1.41421 3.58579 1.75 4 1.75V0.25ZM13.25 13C13.25 13.4142 13.5858 13.75 14 13.75C14.4142 13.75 14.75 13.4142 14.75 13H13.25ZM4 1.75H11V0.25H4V1.75ZM13.25 4V13H14.75V4H13.25ZM11 1.75C12.2426 1.75 13.25 2.75736 13.25 4H14.75C14.75 1.92893 13.0711 0.25 11 0.25V1.75ZM3.5 5C3.5 5.27614 3.27614 5.5 3 5.5V2.5C1.61929 2.5 0.5 3.61929 0.5 5H3.5ZM3 5.5H10V2.5H3V5.5ZM10 5.5C9.72386 5.5 9.5 5.27614 9.5 5H12.5C12.5 3.61929 11.3807 2.5 10 2.5V5.5ZM9.5 5V14H12.5V5H9.5ZM9.5 14C9.5 13.7239 9.72386 13.5 10 13.5V16.5C11.3807 16.5 12.5 15.3807 12.5 14H9.5ZM10 13.5H3V16.5H10V13.5ZM3 13.5C3.27614 13.5 3.5 13.7239 3.5 14H0.5C0.5 15.3807 1.61929 16.5 3 16.5V13.5ZM3.5 14V5H0.5V14H3.5Z" fill="#69CBBF" mask="url(#path-1-outside-1)"/>
</svg>
