<svg width="15" height="17" viewBox="0 0 15 17" fill="none" xmlns="http://www.w3.org/2000/svg">
<rect x="1.25" y="3.25" width="10.5" height="12.5" rx="1.75" stroke="url(#paint0_linear)" stroke-width="1.5" stroke-linecap="round" stroke-linejoin="round"/>
<path d="M4 0.25C3.58579 0.25 3.25 0.585786 3.25 1C3.25 1.41421 3.58579 1.75 4 1.75V0.25ZM13.25 13C13.25 13.4142 13.5858 13.75 14 13.75C14.4142 13.75 14.75 13.4142 14.75 13H13.25ZM4 1.75H11V0.25H4V1.75ZM13.25 4V13H14.75V4H13.25ZM11 1.75C12.2426 1.75 13.25 2.75736 13.25 4H14.75C14.75 1.92893 13.0711 0.25 11 0.25V1.75Z" fill="url(#paint1_linear)"/>
<defs>
<linearGradient id="paint0_linear" x1="6.5" y1="4" x2="6.5" y2="15" gradientUnits="userSpaceOnUse">
<stop stop-color="#819BD8"/>
<stop offset="1" stop-color="#4C61BB"/>
</linearGradient>
<linearGradient id="paint1_linear" x1="9" y1="1" x2="9" y2="13" gradientUnits="userSpaceOnUse">
<stop stop-color="#819BD8"/>
<stop offset="1" stop-color="#4C61BB"/>
</linearGradient>
</defs>
</svg>
