<svg width="16" height="16" viewBox="0 0 16 16" fill="none" xmlns="http://www.w3.org/2000/svg">
<path d="M13.3846 2.07715H2.61538C1.72323 2.07715 1 2.80038 1 3.69253V13.3848C1 14.277 1.72323 15.0002 2.61538 15.0002H13.3846C14.2768 15.0002 15 14.277 15 13.3848V3.69253C15 2.80038 14.2768 2.07715 13.3846 2.07715Z" stroke="#2B2D3D" stroke-width="1.5" stroke-linejoin="round"/>
<path d="M12.7728 2.07715H3.22721C1.99918 2.07715 1 3.09181 1 4.33869V6.38484H1.53846C1.53846 5.84638 2.07692 5.30792 2.61538 5.30792H13.3846C13.9231 5.30792 14.4615 5.84638 14.4615 6.38484H15V4.33869C15 3.09181 14.0008 2.07715 12.7728 2.07715Z" fill="#2B2D3D"/>
<path d="M9.34614 8.00015C9.79222 8.00015 10.1538 7.63853 10.1538 7.19246C10.1538 6.74638 9.79222 6.38477 9.34614 6.38477C8.90007 6.38477 8.53845 6.74638 8.53845 7.19246C8.53845 7.63853 8.90007 8.00015 9.34614 8.00015Z" fill="#2B2D3D"/>
<path d="M12.0385 8.00015C12.4845 8.00015 12.8462 7.63853 12.8462 7.19246C12.8462 6.74638 12.4845 6.38477 12.0385 6.38477C11.5924 6.38477 11.2308 6.74638 11.2308 7.19246C11.2308 7.63853 11.5924 8.00015 12.0385 8.00015Z" fill="#2B2D3D"/>
<path d="M9.34614 10.6925C9.79222 10.6925 10.1538 10.3309 10.1538 9.88484C10.1538 9.43876 9.79222 9.07715 9.34614 9.07715C8.90007 9.07715 8.53845 9.43876 8.53845 9.88484C8.53845 10.3309 8.90007 10.6925 9.34614 10.6925Z" fill="#2B2D3D"/>
<path d="M12.0385 10.6925C12.4845 10.6925 12.8462 10.3309 12.8462 9.88484C12.8462 9.43876 12.4845 9.07715 12.0385 9.07715C11.5924 9.07715 11.2308 9.43876 11.2308 9.88484C11.2308 10.3309 11.5924 10.6925 12.0385 10.6925Z" fill="#2B2D3D"/>
<path d="M3.96153 10.6925C4.40761 10.6925 4.76922 10.3309 4.76922 9.88484C4.76922 9.43876 4.40761 9.07715 3.96153 9.07715C3.51546 9.07715 3.15384 9.43876 3.15384 9.88484C3.15384 10.3309 3.51546 10.6925 3.96153 10.6925Z" fill="#2B2D3D"/>
<path d="M6.65385 10.6925C7.09993 10.6925 7.46155 10.3309 7.46155 9.88484C7.46155 9.43876 7.09993 9.07715 6.65385 9.07715C6.20778 9.07715 5.84616 9.43876 5.84616 9.88484C5.84616 10.3309 6.20778 10.6925 6.65385 10.6925Z" fill="#2B2D3D"/>
<path d="M3.96153 13.3844C4.40761 13.3844 4.76922 13.0228 4.76922 12.5767C4.76922 12.1307 4.40761 11.769 3.96153 11.769C3.51546 11.769 3.15384 12.1307 3.15384 12.5767C3.15384 13.0228 3.51546 13.3844 3.96153 13.3844Z" fill="#2B2D3D"/>
<path d="M6.65385 13.3844C7.09993 13.3844 7.46155 13.0228 7.46155 12.5767C7.46155 12.1307 7.09993 11.769 6.65385 11.769C6.20778 11.769 5.84616 12.1307 5.84616 12.5767C5.84616 13.0228 6.20778 13.3844 6.65385 13.3844Z" fill="#2B2D3D"/>
<path d="M9.34614 13.3844C9.79222 13.3844 10.1538 13.0228 10.1538 12.5767C10.1538 12.1307 9.79222 11.769 9.34614 11.769C8.90007 11.769 8.53845 12.1307 8.53845 12.5767C8.53845 13.0228 8.90007 13.3844 9.34614 13.3844Z" fill="#2B2D3D"/>
<path d="M3.69232 1V2.07692" stroke="#2B2D3D" stroke-width="1.5" stroke-linecap="round" stroke-linejoin="round"/>
<path d="M12.3077 1V2.07692" stroke="#2B2D3D" stroke-width="1.5" stroke-linecap="round" stroke-linejoin="round"/>
</svg>
