<svg width="23" height="23" viewBox="0 0 23 23" fill="none" xmlns="http://www.w3.org/2000/svg">
<path d="M18.7902 2.55875C16.7185 0.901166 14.144 -0.00130946 11.4908 1.42608e-06C8.3632 1.42608e-06 5.44201 1.20493 3.25804 3.39301C1.14749 5.51025 -0.0091861 8.30567 5.49468e-05 11.2623C0.000126799 13.43 0.636516 15.55 1.8303 17.3594L1.84005 17.3732C1.85443 17.3943 1.86931 17.4153 1.8842 17.4358C1.89909 17.4564 1.91757 17.4831 1.92168 17.4898L1.93297 17.5103C1.99099 17.613 2.03565 17.7382 1.99612 17.8645L1.05045 21.2868C1.01262 21.4141 0.991904 21.5458 0.988847 21.6785C0.988164 22.0277 1.12597 22.3629 1.37206 22.6106C1.61814 22.8583 1.95242 22.9984 2.30159 23C2.4861 22.9939 2.66793 22.9541 2.83808 22.8824L6.30296 21.6318L6.3466 21.6149C6.44086 21.5753 6.54215 21.5552 6.64437 21.5558C6.73862 21.5561 6.83204 21.5735 6.92006 21.6072C7.00323 21.6395 7.75843 21.9286 8.55521 22.1514C9.21749 22.3362 10.5954 22.6134 11.6751 22.6134C14.7375 22.6134 17.5971 21.4275 19.7266 19.2733C21.8377 17.1355 23 14.2939 23 11.2685C23.0003 10.4919 22.918 9.71741 22.7546 8.95819C22.2238 6.46208 20.816 4.18877 18.7902 2.55875ZM6.57147 13.1429C6.24654 13.1429 5.92891 13.0465 5.65875 12.866C5.38858 12.6855 5.17801 12.4289 5.05367 12.1287C4.92933 11.8285 4.89679 11.4982 4.96018 11.1795C5.02357 10.8608 5.18004 10.5681 5.4098 10.3383C5.63955 10.1086 5.93228 9.9521 6.25096 9.88871C6.56964 9.82532 6.89997 9.85785 7.20016 9.9822C7.50035 10.1065 7.75693 10.3171 7.93745 10.5873C8.11797 10.8574 8.21432 11.1751 8.21432 11.5C8.21432 11.9357 8.04123 12.3536 7.73314 12.6617C7.42505 12.9698 7.00718 13.1429 6.57147 13.1429ZM11.5 13.1429C11.1751 13.1429 10.8575 13.0465 10.5873 12.866C10.3171 12.6855 10.1066 12.4289 9.98223 12.1287C9.85788 11.8285 9.82535 11.4982 9.88874 11.1795C9.95213 10.8608 10.1086 10.5681 10.3384 10.3383C10.5681 10.1086 10.8608 9.9521 11.1795 9.88871C11.4982 9.82532 11.8285 9.85785 12.1287 9.9822C12.4289 10.1065 12.6855 10.3171 12.866 10.5873C13.0465 10.8574 13.1429 11.1751 13.1429 11.5C13.1429 11.9357 12.9698 12.3536 12.6617 12.6617C12.3536 12.9698 11.9357 13.1429 11.5 13.1429ZM16.4286 13.1429C16.1037 13.1429 15.786 13.0465 15.5159 12.866C15.2457 12.6855 15.0351 12.4289 14.9108 12.1287C14.7864 11.8285 14.7539 11.4982 14.8173 11.1795C14.8807 10.8608 15.0372 10.5681 15.2669 10.3383C15.4967 10.1086 15.7894 9.9521 16.1081 9.88871C16.4268 9.82532 16.7571 9.85785 17.0573 9.9822C17.3575 10.1065 17.614 10.3171 17.7946 10.5873C17.9751 10.8574 18.0714 11.1751 18.0714 11.5C18.0714 11.9357 17.8984 12.3536 17.5903 12.6617C17.2822 12.9698 16.8643 13.1429 16.4286 13.1429Z" fill="white"/>
</svg>
