<svg width="15" height="15" viewBox="0 0 15 15" fill="none" xmlns="http://www.w3.org/2000/svg">
<path d="M0 1C0 0.447715 0.447715 0 1 0H2C2.55228 0 3 0.447715 3 1V2C3 2.55228 2.55228 3 2 3H1C0.447715 3 0 2.55228 0 2V1Z" fill="black"/>
<path d="M6 1C6 0.447715 6.44772 0 7 0H8C8.55228 0 9 0.447715 9 1V2C9 2.55228 8.55228 3 8 3H7C6.44772 3 6 2.55228 6 2V1Z" fill="black"/>
<path d="M12 1C12 0.447715 12.4477 0 13 0H14C14.5523 0 15 0.447715 15 1V2C15 2.55228 14.5523 3 14 3H13C12.4477 3 12 2.55228 12 2V1Z" fill="black"/>
<path d="M0 7C0 6.44772 0.447715 6 1 6H2C2.55228 6 3 6.44772 3 7V8C3 8.55228 2.55228 9 2 9H1C0.447715 9 0 8.55228 0 8V7Z" fill="black"/>
<path d="M6 7C6 6.44772 6.44772 6 7 6H8C8.55228 6 9 6.44772 9 7V8C9 8.55228 8.55228 9 8 9H7C6.44772 9 6 8.55228 6 8V7Z" fill="black"/>
<path d="M12 7C12 6.44772 12.4477 6 13 6H14C14.5523 6 15 6.44772 15 7V8C15 8.55228 14.5523 9 14 9H13C12.4477 9 12 8.55228 12 8V7Z" fill="black"/>
<path d="M0 13C0 12.4477 0.447715 12 1 12H2C2.55228 12 3 12.4477 3 13V14C3 14.5523 2.55228 15 2 15H1C0.447715 15 0 14.5523 0 14V13Z" fill="black"/>
<path d="M6 13C6 12.4477 6.44772 12 7 12H8C8.55228 12 9 12.4477 9 13V14C9 14.5523 8.55228 15 8 15H7C6.44772 15 6 14.5523 6 14V13Z" fill="black"/>
<path d="M12 13C12 12.4477 12.4477 12 13 12H14C14.5523 12 15 12.4477 15 13V14C15 14.5523 14.5523 15 14 15H13C12.4477 15 12 14.5523 12 14V13Z" fill="black"/>
</svg>
