<svg width="22" height="22" viewBox="0 0 22 22" fill="none" xmlns="http://www.w3.org/2000/svg">
<circle cx="11" cy="11" r="11" fill="#52ADA2"/>
<path d="M18.0711 3.92891C16.1823 2.0402 13.6711 1 11 1C8.32891 1 5.8177 2.0402 3.92891 3.92891C2.0402 5.8177 1 8.32891 1 11C1 13.6711 2.0402 16.1823 3.92891 18.0711C5.8177 19.9598 8.32891 21 11 21C13.6711 21 16.1823 19.9598 18.0711 18.0711C19.9598 16.1823 21 13.6711 21 11C21 8.32891 19.9598 5.8177 18.0711 3.92891ZM11 4.94531C11.9693 4.94531 12.7578 5.73387 12.7578 6.70312C12.7578 7.67238 11.9693 8.46094 11 8.46094C10.0307 8.46094 9.24219 7.67238 9.24219 6.70312C9.24219 5.73387 10.0307 4.94531 11 4.94531ZM13.5 16.6641H8.42188V15.4922H9.24219V10.8047H8.46094V9.63281H12.7578V15.4922H13.5V16.6641Z" fill="white"/>
</svg>
