<svg width="15" height="12" viewBox="0 0 15 12" fill="none" xmlns="http://www.w3.org/2000/svg">
<path d="M0 1C0 0.447715 0.447715 0 1 0H14C14.5523 0 15 0.447715 15 1C15 1.55228 14.5523 2 14 2H1C0.447715 2 0 1.55228 0 1Z" fill="black"/>
<path d="M0 6C0 5.44772 0.447715 5 1 5H14C14.5523 5 15 5.44772 15 6C15 6.55228 14.5523 7 14 7H1C0.447715 7 0 6.55228 0 6Z" fill="black"/>
<path d="M0 11C0 10.4477 0.447715 10 1 10H14C14.5523 10 15 10.4477 15 11C15 11.5523 14.5523 12 14 12H1C0.447715 12 0 11.5523 0 11Z" fill="black"/>
</svg>
