<svg width="18" height="15" viewBox="0 0 18 15" fill="none" xmlns="http://www.w3.org/2000/svg">
<path d="M11 11V12.6667C11 13.1087 10.8244 13.5326 10.5118 13.8452C10.1993 14.1577 9.77536 14.3333 9.33333 14.3333H2.66667C2.22464 14.3333 1.80072 14.1577 1.48816 13.8452C1.17559 13.5326 1 13.1087 1 12.6667V2.66667C1 2.22464 1.17559 1.80072 1.48816 1.48816C1.80072 1.17559 2.22464 1 2.66667 1H9C9.92042 1 11 1.74625 11 2.66667V4.33333" stroke="#606B8F" stroke-linecap="round" stroke-linejoin="round"/>
<path d="M13.6667 11.0002L17 7.66683L13.6667 4.3335" stroke="#606B8F" stroke-linecap="round" stroke-linejoin="round"/>
<path d="M5.66669 7.6665H16.3334" stroke="#606B8F" stroke-linecap="round" stroke-linejoin="round"/>
</svg>
