<svg width="19" height="12" viewBox="0 0 19 12" fill="none" xmlns="http://www.w3.org/2000/svg">
<path d="M1.59445 10.5107L17.0496 10.5107C17.3778 10.5107 17.644 10.2446 17.644 9.91632V1.59433C17.644 1.26604 17.3778 0.999907 17.0496 0.999907L1.59445 0.999907C1.26616 0.999907 1.00002 1.26604 1.00002 1.59433V9.91632C1.00002 10.2446 1.26616 10.5107 1.59445 10.5107Z" stroke="#606B8F" stroke-linejoin="round"/>
<path d="M9.5 7.5C10.6046 7.5 11.5 6.60457 11.5 5.5C11.5 4.39543 10.6046 3.5 9.5 3.5C8.39543 3.5 7.5 4.39543 7.5 5.5C7.5 6.60457 8.39543 7.5 9.5 7.5Z" stroke="#606B8F" stroke-linecap="round" stroke-linejoin="round"/>
<path d="M17.644 3.97214C16.8557 3.97214 16.0997 3.659 15.5423 3.10162C14.9849 2.54423 14.6718 1.78826 14.6718 1" stroke="#606B8F" stroke-linecap="round" stroke-linejoin="round"/>
<path d="M1 3.97214C1.39031 3.97214 1.77679 3.89526 2.13739 3.7459C2.49798 3.59653 2.82563 3.37761 3.10162 3.10162C3.37761 2.82563 3.59653 2.49798 3.7459 2.13739C3.89526 1.77679 3.97214 1.39031 3.97214 1" stroke="#606B8F" stroke-linecap="round" stroke-linejoin="round"/>
<path d="M17.644 7.53882C16.8557 7.53882 16.0997 7.85195 15.5423 8.40934C14.9849 8.96672 14.6718 9.72269 14.6718 10.511" stroke="#606B8F" stroke-linecap="round" stroke-linejoin="round"/>
<path d="M1 7.53882C1.39031 7.53882 1.77679 7.61569 2.13739 7.76506C2.49798 7.91442 2.82563 8.13335 3.10162 8.40934C3.37761 8.68533 3.59653 9.01297 3.7459 9.37357C3.89526 9.73416 3.97214 10.1206 3.97214 10.511" stroke="#606B8F" stroke-linecap="round" stroke-linejoin="round"/>
</svg>
