<svg width="18" height="18" viewBox="0 0 18 18" fill="none" xmlns="http://www.w3.org/2000/svg">
<mask id="path-1-inside-1" fill="white">
<path fill-rule="evenodd" clip-rule="evenodd" d="M0 9C0 4.02944 4.02944 0 9 0C13.9706 0 18 4.02944 18 9C18 13.9706 13.9706 18 9 18C4.02944 18 0 13.9706 0 9ZM9 4.90909C9.45187 4.90909 9.81818 5.19829 9.81818 5.55502V8.18182H12.4466C12.8033 8.18182 13.0925 8.54813 13.0925 9C13.0925 9.45187 12.8033 9.81818 12.4466 9.81818H9.81818V12.445C9.81818 12.8017 9.45187 13.0909 9 13.0909C8.54813 13.0909 8.18182 12.8017 8.18182 12.445V9.81818H5.55662C5.19988 9.81818 4.91069 9.45187 4.91069 9C4.91069 8.54813 5.19988 8.18182 5.55662 8.18182H8.18182V5.55502C8.18182 5.19829 8.54813 4.90909 9 4.90909Z"/>
</mask>
<path fill-rule="evenodd" clip-rule="evenodd" d="M0 9C0 4.02944 4.02944 0 9 0C13.9706 0 18 4.02944 18 9C18 13.9706 13.9706 18 9 18C4.02944 18 0 13.9706 0 9ZM9 4.90909C9.45187 4.90909 9.81818 5.19829 9.81818 5.55502V8.18182H12.4466C12.8033 8.18182 13.0925 8.54813 13.0925 9C13.0925 9.45187 12.8033 9.81818 12.4466 9.81818H9.81818V12.445C9.81818 12.8017 9.45187 13.0909 9 13.0909C8.54813 13.0909 8.18182 12.8017 8.18182 12.445V9.81818H5.55662C5.19988 9.81818 4.91069 9.45187 4.91069 9C4.91069 8.54813 5.19988 8.18182 5.55662 8.18182H8.18182V5.55502C8.18182 5.19829 8.54813 4.90909 9 4.90909Z" fill="white"/>
<path d="M9.81818 8.18182H8.31818V9.68182H9.81818V8.18182ZM9.81818 9.81818V8.31818H8.31818V9.81818H9.81818ZM8.18182 9.81818H9.68182V8.31818H8.18182V9.81818ZM8.18182 8.18182V9.68182H9.68182V8.18182H8.18182ZM9 -1.5C3.20101 -1.5 -1.5 3.20101 -1.5 9H1.5C1.5 4.85786 4.85786 1.5 9 1.5V-1.5ZM19.5 9C19.5 3.20101 14.799 -1.5 9 -1.5V1.5C13.1421 1.5 16.5 4.85786 16.5 9H19.5ZM9 19.5C14.799 19.5 19.5 14.799 19.5 9H16.5C16.5 13.1421 13.1421 16.5 9 16.5V19.5ZM-1.5 9C-1.5 14.799 3.20101 19.5 9 19.5V16.5C4.85786 16.5 1.5 13.1421 1.5 9H-1.5ZM11.3182 5.55502C11.3182 4.05875 9.93045 3.40909 9 3.40909V6.40909C8.9142 6.40909 8.78513 6.38301 8.64908 6.2756C8.51057 6.16625 8.31818 5.92213 8.31818 5.55502H11.3182ZM11.3182 8.18182V5.55502H8.31818V8.18182H11.3182ZM9.81818 9.68182H12.4466V6.68182H9.81818V9.68182ZM12.4466 9.68182C12.0795 9.68182 11.8353 9.48944 11.726 9.35093C11.6186 9.21487 11.5925 9.0858 11.5925 9H14.5925C14.5925 8.06956 13.9428 6.68182 12.4466 6.68182V9.68182ZM11.5925 9C11.5925 8.9142 11.6186 8.78513 11.726 8.64908C11.8353 8.51056 12.0795 8.31818 12.4466 8.31818V11.3182C13.9428 11.3182 14.5925 9.93045 14.5925 9H11.5925ZM12.4466 8.31818H9.81818V11.3182H12.4466V8.31818ZM11.3182 12.445V9.81818H8.31818V12.445H11.3182ZM9 14.5909C9.93044 14.5909 11.3182 13.9412 11.3182 12.445H8.31818C8.31818 12.0779 8.51057 11.8337 8.64908 11.7244C8.78513 11.617 8.9142 11.5909 9 11.5909V14.5909ZM6.68182 12.445C6.68182 13.9412 8.06956 14.5909 9 14.5909V11.5909C9.0858 11.5909 9.21487 11.617 9.35092 11.7244C9.48943 11.8337 9.68182 12.0779 9.68182 12.445H6.68182ZM6.68182 9.81818V12.445H9.68182V9.81818H6.68182ZM8.18182 8.31818H5.55662V11.3182H8.18182V8.31818ZM5.55662 8.31818C5.92372 8.31818 6.16785 8.51056 6.2772 8.64908C6.38461 8.78513 6.41069 8.9142 6.41069 9H3.41069C3.41069 9.93045 4.06035 11.3182 5.55662 11.3182V8.31818ZM6.41069 9C6.41069 9.0858 6.38461 9.21487 6.2772 9.35092C6.16785 9.48943 5.92373 9.68182 5.55662 9.68182V6.68182C4.06035 6.68182 3.41069 8.06956 3.41069 9H6.41069ZM5.55662 9.68182H8.18182V6.68182H5.55662V9.68182ZM6.68182 5.55502V8.18182H9.68182V5.55502H6.68182ZM9 3.40909C8.06955 3.40909 6.68182 4.05875 6.68182 5.55502H9.68182C9.68182 5.92213 9.48943 6.16625 9.35092 6.2756C9.21487 6.38301 9.0858 6.40909 9 6.40909V3.40909Z" fill="white" mask="url(#path-1-inside-1)"/>
</svg>
