<svg width="18" height="16" viewBox="0 0 18 16" fill="none" xmlns="http://www.w3.org/2000/svg">
<path d="M16.6546 8.55135L1.3986 14.9729C1.35621 14.9932 1.3095 15.0024 1.26275 14.9995C1.21601 14.9966 1.17072 14.9818 1.13104 14.9564C1.09137 14.931 1.05858 14.8958 1.03568 14.8541C1.01279 14.8124 1.00052 14.7655 1 14.7177V10.5872C1 10.5193 1.02323 10.4535 1.06568 10.4012C1.10813 10.3489 1.16713 10.3134 1.23252 10.3007L10.0767 8.58744C10.6967 8.46751 10.6967 7.56129 10.0767 7.44136L1.23216 5.72808C1.1669 5.71536 1.10802 5.67984 1.06565 5.62761C1.02328 5.57539 1.00007 5.50973 1 5.44192V1.31327C1 1.10403 1.21001 0.939263 1.3986 1.02165L16.6546 7.48C16.7571 7.52508 16.8445 7.59984 16.9059 7.69504C16.9673 7.79024 17 7.90171 17 8.01568C17 8.12964 16.9673 8.24111 16.9059 8.33631C16.8445 8.43151 16.7571 8.50627 16.6546 8.55135Z" stroke="#454B6B" stroke-width="1.3" stroke-linecap="round" stroke-linejoin="round"/>
</svg>
