<svg width="19" height="10" viewBox="0 0 19 10" fill="none" xmlns="http://www.w3.org/2000/svg">
<path d="M7.53846 8.84615H4.92308C3.88261 8.84615 2.88476 8.43283 2.14904 7.69711C1.41332 6.96139 1 5.96354 1 4.92308C1 3.88261 1.41332 2.88476 2.14904 2.14904C2.88476 1.41332 3.88261 1 4.92308 1H7.53846" stroke="#606B8F" stroke-linecap="round" stroke-linejoin="round"/>
<path d="M11.4615 1H14.0769C15.1174 1 16.1152 1.41332 16.851 2.14904C17.5867 2.88476 18 3.88261 18 4.92308C18 5.96354 17.5867 6.96139 16.851 7.69711C16.1152 8.43283 15.1174 8.84615 14.0769 8.84615H11.4615" stroke="#606B8F" stroke-linecap="round" stroke-linejoin="round"/>
<path d="M5.71136 4.9231H13.3704" stroke="#606B8F" stroke-linecap="round" stroke-linejoin="round"/>
</svg>
