<svg width="15" height="15" viewBox="0 0 15 15" fill="none" xmlns="http://www.w3.org/2000/svg">
<path d="M11.6363 6.31815L12.1363 6.31815L12.1363 6.31812L11.6363 6.31815ZM10.6392 9.9323C10.4439 9.73704 10.1273 9.73704 9.93205 9.9323C9.73679 10.1276 9.73679 10.4441 9.93205 10.6394L10.6392 9.9323ZM13.6462 14.3536C13.8415 14.5488 14.158 14.5488 14.3533 14.3536C14.5486 14.1583 14.5486 13.8417 14.3533 13.6464L13.6462 14.3536ZM6.31815 0.5C5.16743 0.5 4.04255 0.841229 3.08576 1.48054L3.64133 2.312C4.43367 1.78258 5.36521 1.5 6.31815 1.5V0.5ZM3.08576 1.48054C2.12897 2.11984 1.38324 3.02851 0.942883 4.09164L1.86676 4.47432C2.23144 3.59392 2.84899 2.84143 3.64133 2.312L3.08576 1.48054ZM0.942883 4.09164C0.502521 5.15477 0.387302 6.3246 0.611797 7.45322L1.59258 7.25813C1.40667 6.3235 1.50209 5.35473 1.86676 4.47432L0.942883 4.09164ZM0.611797 7.45322C0.836291 8.58183 1.39042 9.61852 2.2041 10.4322L2.91121 9.7251C2.23738 9.05127 1.77849 8.19275 1.59258 7.25813L0.611797 7.45322ZM2.2041 10.4322C3.01778 11.2459 4.05448 11.8 5.18309 12.0245L5.37818 11.0437C4.44355 10.8578 3.58504 10.3989 2.91121 9.7251L2.2041 10.4322ZM5.18309 12.0245C6.3117 12.249 7.48154 12.1338 8.54466 11.6934L8.16198 10.7695C7.28158 11.1342 6.31281 11.2296 5.37818 11.0437L5.18309 12.0245ZM8.54466 11.6934C9.60779 11.2531 10.5165 10.5073 11.1558 9.55054L10.3243 8.99497C9.79487 9.78731 9.04238 10.4049 8.16198 10.7695L8.54466 11.6934ZM11.1558 9.55054C11.7951 8.59375 12.1363 7.46887 12.1363 6.31815L11.1363 6.31815C11.1363 7.27109 10.8537 8.20263 10.3243 8.99497L11.1558 9.55054ZM12.1363 6.31812C12.1362 4.77509 11.5232 3.29528 10.4321 2.2042L9.725 2.9113C10.6286 3.81487 11.1362 5.04035 11.1363 6.31818L12.1363 6.31812ZM10.4321 2.2042C9.34102 1.11311 7.86122 0.500098 6.31818 0.5L6.31812 1.5C7.59596 1.50008 8.82143 2.00774 9.725 2.9113L10.4321 2.2042ZM9.93205 10.6394L13.6462 14.3536L14.3533 13.6464L10.6392 9.9323L9.93205 10.6394Z" fill="#5E5B7D"/>
</svg>
