<svg width="16" height="19" viewBox="0 0 16 19" fill="none" xmlns="http://www.w3.org/2000/svg">
<path d="M2.48607 11.8716H1.29721C1.13307 11.8716 1 12.0046 1 12.1688V17.5186C1 17.6828 1.13307 17.8158 1.29721 17.8158H2.48607C2.65021 17.8158 2.78328 17.6828 2.78328 17.5186V12.1688C2.78328 12.0046 2.65021 11.8716 2.48607 11.8716Z" stroke="#606B8F" stroke-linecap="round" stroke-linejoin="round"/>
<path d="M10.808 8.305H9.61919C9.45505 8.305 9.32198 8.43807 9.32198 8.60222V17.5186C9.32198 17.6828 9.45505 17.8158 9.61919 17.8158H10.808C10.9722 17.8158 11.1053 17.6828 11.1053 17.5186V8.60222C11.1053 8.43807 10.9722 8.305 10.808 8.305Z" stroke="#606B8F" stroke-linecap="round" stroke-linejoin="round"/>
<path d="M14.969 4.14401H13.7802C13.616 4.14401 13.483 4.27708 13.483 4.44123V17.5186C13.483 17.6828 13.616 17.8158 13.7802 17.8158H14.969C15.1332 17.8158 15.2663 17.6828 15.2663 17.5186V4.44123C15.2663 4.27708 15.1332 4.14401 14.969 4.14401Z" stroke="#606B8F" stroke-linecap="round" stroke-linejoin="round"/>
<path d="M6.64707 1.17188H5.45821C5.29407 1.17188 5.161 1.30494 5.161 1.46909V17.5186C5.161 17.6828 5.29407 17.8158 5.45821 17.8158H6.64707C6.81121 17.8158 6.94428 17.6828 6.94428 17.5186V1.46909C6.94428 1.30494 6.81121 1.17188 6.64707 1.17188Z" stroke="#606B8F" stroke-linecap="round" stroke-linejoin="round"/>
</svg>
